<svg xmlns="http://www.w3.org/2000/svg" width="512" height="512" viewBox="0 0 193 193"><path xmlns="http://www.w3.org/2000/svg" d="M150.14 138.849H2.5a2.5 2.5 0 01-2.5-2.5V93.934a2.496 2.496 0 01.846-1.902l.004-.004c.037-.032.074-.063.112-.093l46.904-37.241a2.5 2.5 0 011.555-.542h141.067c.12-.006.223.007.333.021l.012.002h.001c.305.041.596.138.86.281l.003.002h.001a2.512 2.512 0 011.044 1.089c.093.189.163.391.206.6v.005c.036.173.052.349.051.522v42.5c0 .698-.292 1.365-.806 1.839l-40.359 37.176-.007.007c-.003.003-.006.002-.008.008l-.001.001c-.42.38-.969.619-1.574.644h-.104zm-47.38-5h44.88v-5.358h-44.88v5.358zm-48.921 0H97.76V96.408H53.839v37.441zm-48.839 0h43.839v-5.358H5v5.358zm147.641-6.11v2.908L188 98.077V95.1l-35.359 32.639zm-49.881-4.248h44.88v-6.138h-44.88v6.138zm-97.76 0h43.839v-6.138H5v6.138zm147.641-6.433v3.876L188 88.295v-3.876l-35.359 32.639zm-49.881-4.705h44.88v-5.699h-44.88v5.699zm-97.76 0h43.839v-5.699H5v5.699zm147.641-5.87v3.771L188 77.615v-3.771l-35.359 32.639zm-49.881-4.829h44.88v-5.246h-44.88v5.246zm-97.76 0h43.839v-5.246H5v5.246zm147.641-6.652v4.676L188 67.039v-4.677l-35.359 32.64zm-46-3.594h42.522l34.943-32.255h-42.625l-4.898 4.535c1.644.933 3.282 2.354 3.882 4.455.802 2.806-.452 5.814-3.725 8.944-7.998 7.646-20.262 8.517-23.922 8.602l-6.177 5.719zm-48.374 0h41.014l10.837-10.033.03-.028 23.972-22.193H97.133l-9.779 8.115-.079.065-29.008 24.074zm-48.598 0h40.768l8.944-7.423c-1.478-.889-2.861-2.201-3.31-4.1-1.055-4.466 3.825-8.195 5.429-9.421 9.792-7.482 20.038-7.773 23.388-7.647l4.416-3.664H50.293L9.669 91.408zM78.2 68.368c-3.893.738-8.867 2.403-13.664 6.069-3.091 2.363-3.706 3.846-3.599 4.299.133.564 1.406 1.286 2.699 1.718L78.2 68.368zm54.418-1.01l-13.677 12.663c4.493-.815 10.223-2.608 14.344-6.548 1.721-1.646 2.608-3.123 2.374-3.954-.241-.85-1.677-1.672-3.041-2.161z" fill="#f4511e" data-original="#000002"/></svg>