<svg xmlns="http://www.w3.org/2000/svg" width="512" height="512" viewBox="0 0 512.115 512.115"><g xmlns="http://www.w3.org/2000/svg" fill="#f4511e"><path d="M437.077 75.038c-100.044-100.043-261.981-100.058-362.039 0-100.043 100.043-100.058 261.981 0 362.039 100.043 100.043 261.98 100.058 362.039 0 100.044-100.045 100.057-261.981 0-362.039zm-181.02 421.019c-132.336 0-240-107.664-240-240s107.664-240 240-240 240 107.664 240 240-107.664 240-240 240z" data-original="#000000"/><path d="M256.057 48.057c-114.691 0-208 93.309-208 208s93.309 208 208 208 208-93.309 208-208-93.308-208-208-208zm0 400c-105.869 0-192-86.131-192-192s86.131-192 192-192 192 86.131 192 192-86.13 192-192 192z" data-original="#000000"/><path d="M264.057 233.434v-81.376a8 8 0 00-16 0v81.376c-13.521 4.796-19.757 20.238-13.655 32.965L194.4 306.401c-5.055 5.054-1.406 13.657 5.657 13.657a7.976 7.976 0 005.657-2.343l40-40c.131-.131 3.783 2.343 10.343 2.343 13.233 0 24-10.766 24-24 0-10.43-6.688-19.322-16-22.624zm-8 30.623c-4.411 0-8-3.589-8-8s3.589-8 8-8 8 3.589 8 8c0 4.412-3.588 8-8 8zm0-152a8 8 0 008-8v-16a8 8 0 00-16 0v16a8 8 0 008 8zm113.137 19.55l-11.313 11.313a8 8 0 1011.314 11.313l11.313-11.313a8 8 0 10-11.314-11.313zm54.863 116.45h-16a8 8 0 000 16h16a8 8 0 000-16zm-54.862 109.824a8 8 0 00-11.314 11.313l11.313 11.313a7.976 7.976 0 005.657 2.343c7.06 0 10.715-8.599 5.657-13.657zm-113.138 42.176a8 8 0 00-8 8v16a8 8 0 0016 0v-16a8 8 0 00-8-8zM142.92 357.881l-11.313 11.313a7.998 7.998 0 000 11.313 7.999 7.999 0 0011.313 0l11.313-11.313a7.998 7.998 0 000-11.313 8 8 0 00-11.313 0zm-38.863-109.824h-16a8 8 0 000 16h16a8 8 0 000-16zm38.863-116.45a8 8 0 00-11.313 0 7.998 7.998 0 000 11.313l11.313 11.313a7.974 7.974 0 005.657 2.343c7.062 0 10.712-8.602 5.657-13.657z" data-original="#000000"/></g></svg>