<svg xmlns="http://www.w3.org/2000/svg" viewBox="0 0 512 512"><path d="M256 373.333c-108.373 0-210.987-6.357-227.861-9.067-3.179-9.216-6.805-39.872-6.805-65.6 0-15.488 0-55.744 4.928-65.045 11.136-3.968 16.811-12.437 21.824-19.968l2.368-3.904c2.133-1.216 10.048-1.429 14.784-1.579 12.373-.363 26.411-.768 30.272-12.949 3.349-10.603 40.341-82.795 48.469-89.963C153.003 100.949 219.456 96 256 96c5.888 0 10.667-4.779 10.667-10.667S261.888 74.667 256 74.667c-12.203 0-107.029 2.581-122.88 12.224-14.059 8.555-49.941 82.923-56.875 99.136-2.773.576-8.192.725-11.648.832-11.904.341-24.235.704-30.613 9.621l-3.648 5.333c-4.736 7.083-7.232 10.56-12.011 11.947C2.645 218.347 0 243.648 0 298.667c0 7.723.448 75.648 16.32 84.075 11.52 6.144 144.789 11.925 239.68 11.925 5.888 0 10.667-4.779 10.667-10.667s-4.779-10.667-10.667-10.667z"/><path d="M256 160c-80.469 0-155.883 11.712-175.787 22.656-5.163 2.837-7.061 9.323-4.224 14.485 1.92 3.52 5.589 5.525 9.344 5.525a10.53 10.53 0 005.12-1.323c13.099-7.168 79.616-20.011 165.547-20.011 5.888 0 10.667-4.779 10.667-10.667S261.888 160 256 160zm0 149.333c-112.021 0-243.157-10.517-244.48-10.624-5.696-.427-11.029 3.904-11.477 9.771-.469 5.867 3.904 11.029 9.771 11.499 1.301.085 133.291 10.688 246.187 10.688 5.888 0 10.667-4.779 10.667-10.667s-4.78-10.667-10.668-10.667zm-160 64c-5.888 0-10.667 4.779-10.667 10.667v21.333c0 5.888-4.8 10.667-10.667 10.667H32c-5.867 0-10.667-4.779-10.667-10.667v-42.667c0-5.888-4.779-10.667-10.667-10.667S0 356.779 0 362.667v42.667c0 17.643 14.357 32 32 32h42.667c17.643 0 32-14.357 32-32V384c0-5.888-4.779-10.667-10.667-10.667z"/><path d="M96 160H53.333c-5.888 0-10.667 4.779-10.667 10.667s4.779 10.667 10.667 10.667H96c5.888 0 10.667-4.779 10.667-10.667S101.888 160 96 160zm397.696 53.76c-4.779-1.387-7.275-4.864-12.011-11.947l-3.648-5.333c-6.379-8.917-18.709-9.28-30.635-9.621-3.456-.107-8.875-.277-11.648-.832-6.933-16.213-42.816-90.581-56.875-99.136C363.029 77.248 268.203 74.667 256 74.667c-5.888 0-10.667 4.779-10.667 10.667S250.112 96 256 96c36.544 0 102.997 4.949 111.317 8.747 8.853 7.68 45.867 79.872 49.216 90.475 3.861 12.181 17.899 12.587 30.272 12.949 4.715.128 12.629.363 13.867.683l3.264 4.8c5.013 7.531 10.688 16 21.824 19.968 4.907 9.301 4.907 49.557 4.907 65.045 0 25.451-3.563 55.744-6.699 65.323-20.288 3.179-121.323 9.344-227.968 9.344-5.888 0-10.667 4.779-10.667 10.667s4.779 10.667 10.667 10.667c94.891 0 228.16-5.781 239.659-11.925C511.552 374.315 512 306.389 512 298.667c0-55.019-2.645-80.32-18.304-84.907z"/><path d="M431.787 182.656C411.883 171.712 336.469 160 256 160c-5.888 0-10.667 4.779-10.667 10.667s4.779 10.667 10.667 10.667c85.931 0 152.448 12.843 165.547 20.011a10.53 10.53 0 005.12 1.323c3.755 0 7.424-2.005 9.344-5.525 2.837-5.164.938-11.65-4.224-14.487zm80.17 125.803c-.448-5.867-5.568-10.176-11.477-9.771-1.323.128-132.459 10.645-244.48 10.645-5.888 0-10.667 4.779-10.667 10.667s4.779 10.667 10.667 10.667c112.896 0 244.885-10.603 246.187-10.709 5.866-.47 10.24-5.633 9.77-11.499zM501.333 352c-5.888 0-10.667 4.779-10.667 10.667v42.667c0 5.888-4.8 10.667-10.667 10.667h-42.667c-5.867 0-10.667-4.779-10.667-10.667V384c0-5.888-4.779-10.667-10.667-10.667s-10.667 4.779-10.667 10.667v21.333c0 17.643 14.357 32 32 32H480c17.643 0 32-14.357 32-32v-42.667c0-5.887-4.779-10.666-10.667-10.666z"/><path d="M458.667 160H416c-5.888 0-10.667 4.779-10.667 10.667s4.779 10.667 10.667 10.667h42.667c5.888 0 10.667-4.779 10.667-10.667S464.555 160 458.667 160zm-320.79 104.875c-5.376-5.803-12.48-8.875-20.544-8.875-23.573 0-93.717-10.453-94.421-10.539-5.781-.832-11.264 3.136-12.117 8.981-.875 5.824 3.157 11.243 8.96 12.117 2.944.427 72.405 10.773 97.579 10.773 2.133 0 3.541.576 4.864 2.027 5.589 6.059 6.336 22.272 5.824 29.184-.405 5.867 3.968 10.987 9.835 11.435.277.021.555.021.832.021 5.504 0 10.176-4.245 10.603-9.835.255-3.113 2.004-30.783-11.415-45.289zm363.478-10.454c-.875-5.845-6.293-9.707-12.117-8.981-.704.107-70.827 10.56-94.421 10.56-8.064 0-15.168 3.072-20.544 8.896-13.419 14.507-11.669 42.176-11.413 45.291.427 5.568 5.099 9.813 10.603 9.813.277 0 .555-.021.832-.043 5.867-.448 10.261-5.568 9.835-11.435-.533-6.912.213-23.147 5.824-29.184 1.323-1.429 2.731-2.005 4.864-2.005 25.173 0 94.613-10.347 97.579-10.795 5.822-.874 9.832-6.293 8.958-12.117zm-170.688 12.246H181.333c-5.888 0-10.667 4.779-10.667 10.667S175.445 288 181.333 288h149.333c5.888 0 10.667-4.779 10.667-10.667s-4.778-10.666-10.666-10.666z"/></svg>