<svg xmlns="http://www.w3.org/2000/svg" viewBox="0 0 480.01 480.01"><path d="M112 88c-17.673 0-32 14.327-32 32s14.327 32 32 32 32-14.327 32-32-14.327-32-32-32zm0 48c-8.837 0-16-7.163-16-16s7.163-16 16-16 16 7.163 16 16-7.164 16-16 16zm96-24c-13.255 0-24 10.745-24 24s10.745 24 24 24 24-10.745 24-24-10.745-24-24-24zm0 32a8 8 0 110-16 8 8 0 010 16zm-36-80c-6.627 0-12 5.373-12 12s5.373 12 12 12 12-5.373 12-12-5.373-12-12-12zm0 16a4 4 0 110-8 4 4 0 010 8z"/><path d="M479.756 280.87a19.912 19.912 0 00-11.34-14.95A52.407 52.407 0 00472 248a39.999 39.999 0 00-24-36.608V40c0-22.091-17.909-40-40-40s-40 17.909-40 40v.184c-21.641.89-39.01 18.179-40 39.816a8 8 0 008 8h72a8 8 0 008-8c-.638-18.619-13.806-34.441-32-38.448V40c0-13.255 10.745-24 24-24s24 10.745 24 24v168a38.68 38.68 0 00-10.592 1.488c-10.182-36.117-47.714-57.141-83.831-46.96A67.942 67.942 0 00294.072 200a55.642 55.642 0 00-9.032 1.08c-8.09-20.414-31.197-30.405-51.611-22.315a39.762 39.762 0 00-13.597 8.979c-26.541-26.439-69.489-26.357-95.929.184a67.76 67.76 0 00-5.303 5.992c-26.294-7.139-53.907 5.697-65.4 30.4-21.767-2.992-41.839 12.229-44.83 33.997A39.567 39.567 0 008 264v4.096c-8.802 6.563-10.616 19.019-4.052 27.821a19.88 19.88 0 0012.852 7.755l5.072 48.256a114.088 114.088 0 0065.672 89.048l-3.2 12.672c-2.839 11.368 4.075 22.885 15.443 25.724a21.216 21.216 0 0022.797-8.82l10.608-15.912c6.46.868 12.97 1.322 19.488 1.36h174.648a153.049 153.049 0 0019.488-1.36l10.616 15.92c6.499 9.75 19.672 12.384 29.421 5.885a21.217 21.217 0 008.803-22.845l-3.2-12.656a114.088 114.088 0 0065.704-89.016l5.072-48.256c10.859-1.734 18.257-11.943 16.524-22.802zM385.788 59.389A29.787 29.787 0 01398.399 72h-52.8c7.616-14.58 25.609-20.227 40.189-12.611zM48 240c2.586.044 5.147.509 7.584 1.376a8 8 0 0010.2-5.208c6.507-21.083 28.874-32.9 49.958-26.392 1.012.312 2.011.665 2.994 1.056a8 8 0 009.648-3.072c15.531-24.078 47.641-31.006 71.719-15.475a51.881 51.881 0 0113.689 12.883 8 8 0 0013.392-.84c6.343-11.523 20.826-15.722 32.349-9.379a23.813 23.813 0 0112.059 17.275 8 8 0 0010.656 6.264A39.756 39.756 0 01296 216c.8 0 1.6.064 2.872.16a8.176 8.176 0 008.096-5.336c9.462-27.083 39.087-41.367 66.169-31.906a51.946 51.946 0 0134.431 42.754 8 8 0 0012.088 5.872A23.611 23.611 0 01432 224c13.255 0 24 10.745 24 24a34.721 34.721 0 01-4.224 16H24c0-13.255 10.745-24 24-24zm61.272 221.672a5.208 5.208 0 01-4.344 2.328 5.24 5.24 0 01-5.072-6.48l2.552-10.168c4.432 1.6 8.96 3.024 13.6 4.184l-6.736 10.136zm269.928.32h-.024a5.09 5.09 0 01-4.104 2.008 5.191 5.191 0 01-4.336-2.32L364 451.536c4.656-1.16 9.184-2.6 13.6-4.184l2.544 10.152a5.13 5.13 0 01-.944 4.488zm63.048-111.736C436.856 401.424 387.456 440 327.328 440H152.672c-60.128 0-109.528-38.576-114.92-89.744L32.88 304h414.24l-4.872 46.256zM460 288H20a4 4 0 010-8h440a4 4 0 010 8z"/><path d="M336 104a8 8 0 00-8 8v24a8 8 0 0016 0v-24a8 8 0 00-8-8zm24-8a8 8 0 00-8 8v16a8 8 0 0016 0v-16a8 8 0 00-8-8zm24 8a8 8 0 00-8 8v24a8 8 0 0016 0v-24a8 8 0 00-8-8zm24-8a8 8 0 00-8 8v16a8 8 0 0016 0v-16a8 8 0 00-8-8z"/></svg>